inDegrees=no
num_controls=7
num_derivatives=13
num_iterations=131
num_multipliers=7
num_parameters=0
num_slacks=7
num_states=26
objective=5.999618
objective_accelerations=0.624758
objective_balance=0.030202
objective_effort=0.620593
objective_height=4.699944
objective_ligament=0.024120
solver_duration=1660.322710
status=Solve_Succeeded
success=true
DataType=double
version=3
OpenSimVersion=4.4-2022-07-23-0e9fedc
endheader
time	/jointset/ground_pelvis/pelvis_tilt/value	/jointset/ground_pelvis/pelvis_tx/value	/jointset/ground_pelvis/pelvis_ty/value	/jointset/hip_l/hip_flexion_l/value	/jointset/hip_l/hip_adduction_l/value	/jointset/hip_l/hip_rotation_l/value	/jointset/back/lumbar_extension/value	/jointset/patellofemoral_l/patellar_flexion_l/value	/jointset/knee_l/knee_flexion_l/value	/jointset/knee_l/knee_adduction_l/value	/jointset/knee_l/knee_rotation_l/value	/jointset/ankle_l/ankle_angle_l/value	/jointset/subtalar_l/subtalar_angle_l/value	/jointset/ground_pelvis/pelvis_tilt/speed	/jointset/ground_pelvis/pelvis_tx/speed	/jointset/ground_pelvis/pelvis_ty/speed	/jointset/hip_l/hip_flexion_l/speed	/jointset/hip_l/hip_adduction_l/speed	/jointset/hip_l/hip_rotation_l/speed	/jointset/back/lumbar_extension/speed	/jointset/patellofemoral_l/patellar_flexion_l/speed	/jointset/knee_l/knee_flexion_l/speed	/jointset/knee_l/knee_adduction_l/speed	/jointset/knee_l/knee_rotation_l/speed	/jointset/ankle_l/ankle_angle_l/speed	/jointset/subtalar_l/subtalar_angle_l/speed	/forceset/tau_hip_flexion_l	/forceset/tau_hip_adduction_l	/forceset/tau_hip_rotation_l	/forceset/tau_knee_flexion_l	/forceset/tau_ankle_angle_l	/forceset/tau_subtalar_angle_l	/forceset/tau_lumbar_extension	lambda_cid13_p0	lambda_cid13_p1	lambda_cid13_p2	lambda_cid13_p3	lambda_cid13_p4	lambda_cid13_p5	lambda_cid14_p0	/jointset/ground_pelvis/pelvis_tilt/accel	/jointset/ground_pelvis/pelvis_tx/accel	/jointset/ground_pelvis/pelvis_ty/accel	/jointset/hip_l/hip_flexion_l/accel	/jointset/hip_l/hip_adduction_l/accel	/jointset/hip_l/hip_rotation_l/accel	/jointset/back/lumbar_extension/accel	/jointset/patellofemoral_l/patellar_flexion_l/accel	/jointset/knee_l/knee_flexion_l/accel	/jointset/knee_l/knee_adduction_l/accel	/jointset/knee_l/knee_rotation_l/accel	/jointset/ankle_l/ankle_angle_l/accel	/jointset/subtalar_l/subtalar_angle_l/accel	gamma_cid13_p0	gamma_cid13_p1	gamma_cid13_p2	gamma_cid13_p3	gamma_cid13_p4	gamma_cid13_p5	gamma_cid14_p0
0	-0.0362224333728496	0.05641602405337558	0.9203522078278933	0.3085811930696054	-0.2954709008200593	-0.2978475185916571	-0.3879500408040475	0.2499276582271023	0.249927658227084	-0.1745329207203751	-0.1708448341760244	-0.0008036543073733089	0.0005651029629928832	0	0	0	0	0	0	0	0	0	0	0	0	0	0.07613811159223483	-0.02044289831222062	-0.01531476576013026	-0.2078142817196819	0.1113323352148137	-0.02304010571736774	-0.01253690579345527	-8.051866472390728	8.246298478664121	1.85173006260632	46.47240336531999	-609.4253615694093	-59.3801941350125	-23.07247635131986	-2.369909465517878	-3.056236323768293	-1.162294175972207	11.89989541226734	-0.9304743909215155	3.089325703703034	-7.966709608453432	9.041591575546654	9.0415915755423	0.9384486753089861	-0.2972005402397285	-0.1555802813392466	-1.055899949842259	2.950262787480113e-08	1.589311891859188e-07	4.180356892664651e-08	-4.382483179899624e-08	2.529613636637631e-07	9.56229278576127e-08	3.839424783924234e-10
0.01	-0.03633589881772025	0.0562661834672734	0.9202953883822452	0.3091612554623843	-0.2955176414538313	-0.2976927702976639	-0.3883460720772858	0.25037061439076	0.2503706143906805	-0.174489619441081	-0.1708566444581321	-0.0008112199393966244	0.0005121540895479824	-0.02260100633801602	-0.02969410623458278	-0.01130913740956732	0.1153136155867236	-0.00928513705970717	0.03081402749068804	-0.07853804827884339	0.08815836346015955	0.08815836346013714	0.008639011160197657	-0.002319551997277789	-0.001336012752633903	-0.01046137858475413	0.07214837619878507	-0.03493650721551544	-0.01527125421185421	-0.2094500829823428	0.1136083621433767	-0.008826075196075246	-0.007260919375278455	-6.884621024923579	2.04870232265881	2.634269597920534	42.2939734478527	-613.0691619729871	-72.04205712603375	-23.07806803852368	-2.191394443057161	-2.884904891386449	-1.106960173200612	11.24225970587909	-0.91810832318109	3.057095766066009	-7.697121481771757	8.638028264495466	8.638028264494586	0.8234662604219277	-0.1929529170535823	-0.09603758542249898	-1.022028188780462	-8.726479495249681e-09	1.538074226596347e-07	1.143507000567964e-07	-5.029392712664409e-09	8.500827595253491e-08	4.876516932596852e-08	-8.877457435545389e-09
0.02	-0.03667261397100305	0.05582762039520715	0.9201271302325519	0.3108734870258615	-0.2956553484501522	-0.2972339508299165	-0.3895074376421436	0.2516821680956361	0.2516821680956337	-0.1743605602654066	-0.170890374337785	-0.0008268308615877986	0.0003584371550578799	-0.04464994168059067	-0.05774449719281547	-0.0222877408090851	0.2264338341335604	-0.01819327250688434	0.06081423475394712	-0.1530668583245127	0.1737195082501291	0.1737195082501062	0.01715157928228643	-0.004383919497830325	-0.001609058033142817	-0.02015361220904094	0.06815864080576459	-0.04943011611869261	-0.01522774266320383	-0.2110858842447369	0.1158843890720922	0.005387955325386937	-0.001984932956912939	-5.64645051252166	-4.160007633146426	3.417089651211572	38.09825658866752	-615.5821074331202	-84.6261528103044	-23.09445517370101	-2.259495266429227	-2.727493268498632	-1.096187373962306	11.06121600429007	-0.8550740684155026	2.926561658217217	-7.164861961818412	8.522147841508737	8.522147841508774	0.9131600676872483	-0.2461636408947368	0.05701321308536585	-0.9020709577489214	-4.695558686530049e-08	1.486836561333505e-07	1.868978311869464e-07	3.376604637366742e-08	-8.294481175869324e-08	1.907410794324334e-09	-1.81388573494832e-08
0.03	-0.03722716327012565	0.05511580112110051	0.9198503281642318	0.3136776669172752	-0.2958801249745883	-0.2964795896409961	-0.3913952431901832	0.253836743227984	0.2538367432280065	-0.1741468582508533	-0.1709439157349562	-0.000841106607805327	0.0001113501833872194	-0.06614404264324605	-0.08444193248543069	-0.03305318022626156	0.3338297697277447	-0.02669769612588851	0.08991848335605299	-0.2239841670947366	0.2567959847823997	0.2567959847823936	0.02555654657834411	-0.006295988254463611	-0.001191727852031132	-0.02917632301945973	0.0616298026861011	-0.04225843082844552	-0.01466488233196998	-0.2071978845460825	0.1154560949378329	0.001537542112300288	0.004079269468088327	-5.939132835152676	-2.50067889295471	3.225824904926261	36.84533223208036	-616.8699320306346	-80.20987615581143	-23.12087952460208	-2.076993437766798	-2.614247979212477	-1.063815598881887	10.49291676925956	-0.8385108542790002	2.881403947119579	-6.978652705774002	8.140471208604197	8.140471208606664	0.7993605972346679	-0.1594426698480488	0.04224908376003914	-0.8892972969245605	-6.671085500994176e-08	1.442176371082944e-07	2.316934719388073e-07	5.398266465405931e-08	-1.741417603358515e-07	-1.751764847662279e-08	-2.418343016596149e-08
0.04	-0.03799317876419769	0.05414233163015279	0.919466453027083	0.3175386330510771	-0.2961880226043376	-0.2954383764688669	-0.3939769193001559	0.2568100978555825	0.2568100978555792	-0.1738500674559787	-0.171015720655017	-0.0008495778195843381	-0.0002233491272349051	-0.08694318066916333	-0.1100745405610344	-0.04370235457486986	0.4377910826130095	-0.03481749357032158	0.1181846313946497	-0.2918409707108949	0.3374754072953955	0.3374754072954067	0.03376933534118426	-0.008036624083123101	-0.0004481511454839832	-0.03767607999932918	0.0551009645663658	-0.03508674553825208	-0.01410202200095635	-0.2033098848474567	0.1150278008035385	-0.002312871100850877	0.01014347189307712	-6.166635929904294	-0.850965910115781	3.034040327794383	35.56452377357081	-617.1417199483071	-75.71934937096749	-23.15648075194044	-2.120502679081218	-2.514527825096678	-1.072934360248682	10.37429146250627	-0.7781488335012565	2.758941545515365	-6.552760931005081	8.042737037653886	8.042737037653991	0.8747243610438238	-0.2118770553000361	0.1222625181720804	-0.7974801916391534	-8.608521925302819e-08	1.397651798873872e-07	2.759169170127655e-07	7.381621446422564e-08	-2.637561081061217e-07	-3.63770850824009e-08	-3.01616766505334e-08
